<?xml version="1.0" encoding="UTF-8" ?>
<!DOCTYPE svg PUBLIC "-//W3C//DTD SVG 1.1//EN" "http://www.w3.org/Graphics/SVG/1.1/DTD/svg11.dtd">
<svg width="1000pt" height="1000pt" viewBox="0 0 1000 1000" version="1.1" xmlns="http://www.w3.org/2000/svg">
<g id="#244652ff">
<path fill="#244652" opacity="1.00" d=" M 228.04 180.37 C 249.94 178.38 271.95 178.33 293.92 178.77 C 327.95 180.14 362.16 185.03 394.26 196.80 C 421.88 206.88 447.62 222.73 467.86 244.18 C 478.90 256.10 488.68 269.44 495.33 284.31 C 482.15 277.07 469.12 269.46 455.14 263.81 C 424.75 250.94 392.05 243.13 359.01 242.20 C 324.68 241.04 289.95 247.37 258.71 261.79 C 232.82 273.63 209.63 291.14 190.79 312.45 C 184.11 296.51 177.23 280.57 168.19 265.79 C 160.80 252.88 152.20 240.70 143.01 229.02 C 136.17 221.00 129.77 212.53 121.87 205.48 C 127.58 202.10 133.64 199.34 139.92 197.20 C 168.28 187.31 198.20 182.75 228.04 180.37 Z" />
<path fill="#244652" opacity="1.00" d=" M 561.95 189.06 C 591.85 183.83 622.75 180.59 652.84 186.30 C 667.64 189.17 682.28 196.32 691.29 208.77 C 700.28 220.90 703.34 236.23 704.16 251.02 C 704.65 261.50 704.35 272.00 704.39 282.49 C 693.89 271.07 683.25 259.70 671.44 249.61 C 644.34 225.98 613.09 207.07 579.38 194.52 C 573.65 192.47 567.96 190.13 561.95 189.06 Z" />
<path fill="#244652" opacity="1.00" d=" M 543.13 204.45 C 552.94 208.72 562.21 214.13 571.36 219.66 C 600.40 237.63 626.34 260.69 647.30 287.68 C 668.82 315.34 685.09 347.27 693.48 381.36 C 702.74 418.79 702.27 459.01 689.58 495.59 C 679.84 524.16 662.60 550.06 640.14 570.22 C 613.07 594.66 578.84 610.83 543.01 617.26 C 542.66 566.85 542.96 516.42 542.86 466.00 C 542.85 380.33 542.88 294.66 542.85 208.99 C 542.89 207.47 542.98 205.96 543.13 204.45 Z" />
<path fill="#244652" opacity="1.00" d=" M 97.63 245.78 C 126.87 265.83 152.41 291.36 172.25 320.76 C 174.28 323.56 176.10 326.52 177.37 329.76 C 152.19 365.60 139.34 409.35 138.53 452.98 C 137.55 493.83 146.62 534.65 163.18 571.91 C 177.73 604.51 198.10 634.46 222.75 660.26 C 233.18 670.87 243.86 681.41 255.93 690.16 C 250.20 683.87 243.81 678.22 238.26 671.76 C 213.57 644.41 194.24 612.03 183.12 576.84 C 169.19 533.18 168.68 484.62 185.48 441.67 C 196.46 413.26 214.99 387.86 238.54 368.55 C 244.86 363.47 251.24 358.35 258.40 354.49 C 258.43 375.18 258.42 395.88 258.41 416.57 C 269.26 416.58 280.11 416.59 290.96 416.57 C 301.09 416.56 311.34 415.34 320.84 411.69 C 330.02 408.23 338.37 401.81 342.85 392.94 C 348.48 381.88 349.22 369.08 348.36 356.91 C 347.44 345.42 342.90 333.92 334.18 326.13 C 338.37 325.05 342.67 324.42 346.98 324.02 C 369.95 321.41 393.26 322.33 416.04 326.15 C 450.10 331.66 482.72 344.30 512.60 361.38 C 513.13 397.47 505.59 434.44 486.32 465.34 C 475.69 482.46 461.72 497.50 445.41 509.34 C 416.40 530.21 381.29 541.21 346.06 545.41 C 317.27 549.03 288.19 547.34 259.26 547.79 C 259.29 595.95 259.25 644.12 259.28 692.29 C 241.32 697.65 222.60 699.85 203.98 701.36 C 186.87 702.41 169.59 702.51 152.64 699.70 C 137.93 697.30 123.12 691.23 113.27 679.66 C 103.57 668.43 99.45 653.50 98.34 638.96 C 97.43 631.34 97.66 623.67 97.64 616.02 C 97.63 492.61 97.65 369.19 97.63 245.78 Z" />
<path fill="#244652" opacity="1.00" d=" M 757.41 565.42 C 799.14 565.41 840.86 565.40 882.59 565.42 C 893.69 581.77 900.21 601.06 902.34 620.65 C 895.38 622.69 888.85 625.98 881.82 627.78 C 865.31 632.80 848.22 635.97 831.00 637.01 C 823.97 636.66 816.97 638.24 809.96 637.32 C 805.30 636.80 800.61 637.23 795.94 636.90 C 775.85 635.10 755.87 631.51 736.59 625.51 C 731.63 624.22 726.72 622.64 722.29 620.01 C 736.68 603.75 748.92 585.44 757.41 565.42 Z" />
<path fill="#244652" opacity="1.00" d=" M 579.77 687.46 C 624.63 684.57 668.83 667.91 703.09 638.56 C 705.76 640.31 708.38 642.15 710.90 644.13 C 745.03 670.61 785.03 689.61 827.33 698.52 C 833.94 699.41 840.64 698.40 847.24 699.52 C 834.85 700.11 822.43 699.60 810.03 699.77 C 752.34 699.77 694.65 699.77 636.96 699.77 C 617.31 700.48 596.78 698.02 579.77 687.46 Z" />
<path fill="#244652" opacity="1.00" d=" M 295.14 761.57 C 299.63 760.90 304.73 759.64 308.92 762.06 C 312.79 765.12 311.02 770.72 311.41 774.98 C 318.12 773.65 325.75 773.25 331.66 777.28 C 336.55 780.38 338.43 786.46 338.41 791.99 C 338.45 801.13 338.41 810.28 338.42 819.43 C 334.39 820.22 330.11 820.88 326.09 819.71 C 323.62 818.97 322.22 816.46 322.03 814.02 C 321.40 806.12 322.34 798.15 321.58 790.27 C 320.02 786.18 314.66 787.01 311.39 788.31 C 311.44 798.69 311.40 809.07 311.41 819.46 C 307.17 820.24 302.56 821.03 298.42 819.43 C 294.27 817.31 294.93 811.92 294.86 808.03 C 295.55 800.68 294.66 793.34 295.00 785.99 C 294.46 777.84 295.33 769.71 295.14 761.57 Z" />
<path fill="#244652" opacity="1.00" d=" M 590.45 761.64 C 594.88 760.86 599.82 759.74 604.06 761.84 C 608.32 764.76 606.34 770.60 606.78 774.90 C 613.58 773.48 621.29 773.53 627.09 777.87 C 634.98 783.28 637.34 793.91 635.68 802.89 C 634.72 810.29 629.47 816.99 622.32 819.30 C 613.77 822.04 603.84 821.73 595.99 817.11 C 592.97 815.50 590.33 812.53 590.46 808.93 C 590.39 793.17 590.42 777.40 590.45 761.64 M 606.68 788.49 C 606.78 794.51 606.83 800.54 606.64 806.57 C 609.02 807.89 611.93 808.09 614.52 807.32 C 617.84 806.03 619.24 802.27 619.33 798.97 C 619.48 795.59 619.28 791.72 616.77 789.18 C 614.13 786.48 609.79 786.89 606.68 788.49 Z" />
<path fill="#244652" opacity="1.00" d=" M 250.40 764.58 C 257.83 763.15 265.71 762.86 273.05 764.94 C 278.93 766.56 284.33 770.78 286.27 776.71 C 289.02 784.64 286.89 794.79 279.60 799.58 C 273.72 803.49 266.40 803.55 259.61 803.36 C 259.62 808.72 259.61 814.08 259.62 819.45 C 255.26 820.19 250.59 821.03 246.32 819.46 C 243.42 818.29 242.66 814.85 242.74 812.06 C 242.82 797.97 242.62 783.88 242.84 769.80 C 243.36 766.21 247.45 765.32 250.40 764.58 M 259.58 777.59 C 259.54 781.79 259.54 786.00 259.58 790.21 C 262.36 790.13 265.31 790.31 267.88 789.07 C 271.05 786.79 271.10 781.28 268.01 778.91 C 265.53 777.21 262.40 777.68 259.58 777.59 Z" />
<path fill="#244652" opacity="1.00" d=" M 494.10 765.73 C 498.45 764.37 503.42 763.24 507.75 765.25 C 510.26 766.39 510.93 769.42 510.85 771.93 C 510.86 783.35 510.83 794.78 510.85 806.20 C 517.52 806.25 524.19 806.15 530.85 806.26 C 532.45 809.54 533.33 813.44 532.02 816.97 C 531.07 819.35 528.39 820.51 525.94 820.32 C 517.97 820.29 509.99 820.40 502.03 820.26 C 497.71 820.28 493.93 816.39 494.15 812.07 C 494.04 796.63 494.16 781.17 494.10 765.73 Z" />
<path fill="#244652" opacity="1.00" d=" M 402.22 766.89 C 406.82 765.96 412.15 764.89 416.31 767.71 C 419.24 770.42 418.19 774.82 418.39 778.36 C 422.13 778.36 425.88 778.37 429.63 778.35 C 431.54 782.34 432.82 788.95 427.90 791.26 C 424.77 791.91 421.55 791.54 418.39 791.60 C 418.54 796.44 418.04 801.32 418.64 806.13 C 421.33 808.95 425.58 807.36 428.95 807.05 C 431.04 810.05 431.80 814.41 429.43 817.47 C 427.26 820.41 423.31 820.82 419.95 821.04 C 415.31 821.11 410.30 820.45 406.59 817.41 C 403.33 814.64 402.08 810.18 402.20 806.02 C 402.20 792.98 402.16 779.93 402.22 766.89 Z" />
<path fill="#244652" opacity="1.00" d=" M 363.52 774.81 C 371.11 773.18 379.74 773.92 385.99 778.90 C 395.92 786.77 396.87 802.73 389.68 812.70 C 384.51 819.69 375.11 821.72 366.88 820.76 C 359.72 820.12 352.81 815.91 349.58 809.40 C 346.17 802.53 345.98 794.14 348.89 787.08 C 351.38 780.90 357.09 776.33 363.52 774.81 M 368.43 787.53 C 365.31 788.57 364.11 792.08 363.79 795.05 C 363.48 798.53 363.62 802.40 365.69 805.38 C 367.34 807.78 370.69 808.26 373.28 807.31 C 376.36 805.79 377.27 802.07 377.46 798.94 C 377.59 795.52 377.40 791.65 374.99 788.99 C 373.37 787.14 370.66 786.95 368.43 787.53 Z" />
<path fill="#244652" opacity="1.00" d=" M 453.59 774.86 C 461.43 773.10 470.40 773.94 476.76 779.26 C 486.29 787.32 487.01 803.03 479.88 812.86 C 474.62 819.81 465.19 821.74 456.95 820.73 C 449.31 820.02 442.04 815.14 439.18 807.92 C 436.24 800.67 436.45 791.99 440.17 785.05 C 442.88 779.90 448.01 776.29 453.59 774.86 M 458.43 787.65 C 455.64 788.90 454.26 792.06 454.18 794.98 C 454.05 798.58 453.71 802.75 456.26 805.66 C 457.94 807.85 461.09 808.21 463.55 807.31 C 466.19 805.95 467.48 802.90 467.62 800.06 C 467.82 796.24 468.06 791.74 465.10 788.84 C 463.42 787.04 460.63 786.91 458.43 787.65 Z" />
<path fill="#244652" opacity="1.00" d=" M 540.80 779.82 C 542.24 776.59 545.93 775.41 549.14 774.79 C 556.50 773.61 564.47 773.35 571.38 776.58 C 576.51 778.88 579.95 784.34 579.76 789.97 C 579.72 797.52 580.08 805.11 579.57 812.64 C 577.72 817.39 572.16 819.28 567.55 820.27 C 559.82 821.44 551.30 821.67 544.27 817.78 C 536.15 813.41 535.24 800.14 542.93 794.94 C 549.21 790.89 557.01 791.84 564.06 790.51 C 563.02 786.57 558.23 786.64 554.95 786.70 C 550.87 786.60 547.15 788.62 543.16 788.90 C 540.58 786.78 539.68 782.92 540.80 779.82 M 553.86 803.98 C 553.09 805.38 553.87 807.07 555.29 807.67 C 558.01 808.94 561.08 808.06 563.90 807.59 C 563.88 805.73 563.88 803.87 563.89 802.03 C 560.55 802.40 556.58 801.59 553.86 803.98 Z" />
</g>
<g id="#23737dff">
<path fill="#23737d" opacity="1.00" d=" M 542.76 192.65 C 548.98 190.79 555.53 190.04 561.95 189.06 C 567.96 190.13 573.65 192.47 579.38 194.52 C 613.09 207.07 644.34 225.98 671.44 249.61 C 683.25 259.70 693.89 271.07 704.39 282.49 C 704.46 376.80 704.39 471.11 704.43 565.43 C 722.09 565.40 739.75 565.42 757.41 565.42 C 748.92 585.44 736.68 603.75 722.29 620.01 C 716.30 626.60 709.96 632.88 703.09 638.56 C 668.83 667.91 624.63 684.57 579.77 687.46 C 567.55 679.93 557.52 668.85 551.41 655.85 C 545.72 643.84 543.11 630.51 543.01 617.26 C 578.84 610.83 613.07 594.66 640.14 570.22 C 662.60 550.06 679.84 524.16 689.58 495.59 C 702.27 459.01 702.74 418.79 693.48 381.36 C 685.09 347.27 668.82 315.34 647.30 287.68 C 626.34 260.69 600.40 237.63 571.36 219.66 C 562.21 214.13 552.94 208.72 543.13 204.45 L 542.81 204.32 C 542.87 200.43 542.92 196.54 542.76 192.65 Z" />
<path fill="#23737d" opacity="1.00" d=" M 258.71 261.79 C 289.95 247.37 324.68 241.04 359.01 242.20 C 392.05 243.13 424.75 250.94 455.14 263.81 C 469.12 269.46 482.15 277.07 495.33 284.31 C 507.37 307.99 512.27 334.93 512.60 361.38 C 482.72 344.30 450.10 331.66 416.04 326.15 C 393.26 322.33 369.95 321.41 346.98 324.02 C 342.67 324.42 338.37 325.05 334.18 326.13 C 321.37 314.83 303.55 312.21 287.06 311.92 C 277.52 312.10 267.96 312.04 258.44 312.82 C 258.38 326.71 258.44 340.60 258.40 354.49 C 251.24 358.35 244.86 363.47 238.54 368.55 C 214.99 387.86 196.46 413.26 185.48 441.67 C 168.68 484.62 169.19 533.18 183.12 576.84 C 194.24 612.03 213.57 644.41 238.26 671.76 C 243.81 678.22 250.20 683.87 255.93 690.16 C 243.86 681.41 233.18 670.87 222.75 660.26 C 198.10 634.46 177.73 604.51 163.18 571.91 C 146.62 534.65 137.55 493.83 138.53 452.98 C 139.34 409.35 152.19 365.60 177.37 329.76 C 181.34 323.62 185.90 317.88 190.79 312.45 C 209.63 291.14 232.82 273.63 258.71 261.79 Z" />
</g>
<g id="#245863ff">
<path fill="#245863" opacity="1.00" d=" M 109.40 215.46 C 113.06 211.56 117.38 208.36 121.87 205.48 C 129.77 212.53 136.17 221.00 143.01 229.02 C 152.20 240.70 160.80 252.88 168.19 265.79 C 177.23 280.57 184.11 296.51 190.79 312.45 C 185.90 317.88 181.34 323.62 177.37 329.76 C 176.10 326.52 174.28 323.56 172.25 320.76 C 152.41 291.36 126.87 265.83 97.63 245.78 C 98.23 234.80 101.53 223.47 109.40 215.46 Z" />
</g>
<g id="#244f5bff">
<path fill="#244f5b" opacity="1.00" d=" M 703.09 638.56 C 709.96 632.88 716.30 626.60 722.29 620.01 C 726.72 622.64 731.63 624.22 736.59 625.51 C 755.87 631.51 775.85 635.10 795.94 636.90 C 800.61 637.23 805.30 636.80 809.96 637.32 C 816.97 638.24 823.97 636.66 831.00 637.01 C 848.22 635.97 865.31 632.80 881.82 627.78 C 888.85 625.98 895.38 622.69 902.34 620.65 C 903.52 637.37 902.36 654.88 895.21 670.28 C 886.72 688.37 866.73 698.93 847.24 699.52 C 840.64 698.40 833.94 699.41 827.33 698.52 C 785.03 689.61 745.03 670.61 710.90 644.13 C 708.38 642.15 705.76 640.31 703.09 638.56 Z" />
</g>
<g id="#a60118ff">
<path fill="#a60118" opacity="1.00" d=" M 664.81 765.75 C 669.00 764.40 673.71 763.38 677.98 764.97 C 680.81 766.00 681.84 769.24 681.71 772.01 C 681.73 783.41 681.69 794.81 681.72 806.21 C 688.40 806.25 695.08 806.12 701.76 806.30 C 703.11 809.58 704.11 813.30 702.87 816.79 C 702.06 819.17 699.43 820.46 697.01 820.30 C 689.34 820.35 681.66 820.32 673.99 820.32 C 668.25 820.96 663.95 815.40 664.80 809.97 C 664.84 795.23 664.82 780.49 664.81 765.75 Z" />
<path fill="#a60118" opacity="1.00" d=" M 712.43 765.16 C 716.42 764.35 720.58 763.75 724.61 764.60 C 727.04 765.20 728.89 767.36 729.16 769.85 C 729.54 774.58 729.19 779.35 729.36 784.10 C 735.04 777.49 740.70 770.86 746.32 764.19 C 750.14 764.15 754.61 764.61 757.05 767.97 C 759.78 771.24 758.74 776.12 756.20 779.17 C 752.23 784.06 747.46 788.21 743.17 792.80 C 749.00 799.10 754.74 805.48 760.65 811.71 C 760.07 813.87 759.64 816.30 757.85 817.86 C 753.72 821.64 746.77 820.95 743.06 816.90 C 738.27 812.02 734.10 806.58 729.47 801.56 C 729.35 807.51 729.43 813.47 729.42 819.44 C 724.78 820.20 719.68 821.20 715.27 819.09 C 712.91 817.60 712.36 814.61 712.44 812.04 C 712.43 796.41 712.46 780.78 712.43 765.16 Z" />
</g>
</svg>
